# xmcd
#
# Track frame offsets: 
#        150
#        20666
#        40659
#        57226
#        76681
#
# Disc length: 1314 seconds
#
# Revision: 0
# Processed by: cddbd v1.5.2PL0 Copyright (c) Steve Scherf et al.
# Submitted via: ExactAudioCopy v0.95b3
#
DISCID=30052005
DTITLE=Jollycaster - A Place Like Home
DYEAR=2012
DGENRE=Blues
TTITLE0=Desert sound
TTITLE1=The secret
TTITLE2=Mama told me
TTITLE3=Amy´s spirit
TTITLE4=A place like home
EXTD=
EXTT0=
EXTT1=
EXTT2=
EXTT3=
EXTT4=
PLAYORDER=
